<?xml version="1.0" encoding="UTF-8" standalone="no"?>
<svg xmlns="http://www.w3.org/2000/svg" width="5000" height="5000" viewBox="0 0 5000 5000" version="1.1">
  <g fill="none" stroke="#222" stroke-width="16" transform="matrix(0.99448628,-0.10486681,0,1,0,0)">
    <rect width="3797.1252" height="3836.343" x="556.97131" y="818.7016"/>
    <rect width="1639.6677" height="1656.6029" x="729.56787" y="993.08093"/>
    <rect width="1639.6677" height="1656.6029" x="2541.8323" y="993.08093"/>
    <rect width="1639.6677" height="1656.6029" x="729.56787" y="2824.0627"/>
    <rect width="1639.6677" height="1656.6029" x="2541.8323" y="2824.0627"/>
  </g>
  <path fill="none" stroke="black" stroke-width="8"
     d="M 725.54522,916.57351 C 1628.3621,2246.9367 2625.1168,1973.3553 3685.447,614.25073 3540.3494,2025.7392 3828.1848,2180.0581 4158.4445,2211.1831 3644.5376,2841.3774 3111.4551,3100.8934 2527.8175,2383.1299 2358.1535,3595.8754 1510.2933,3706.0349 729.52998,3925.2781 1733.4478,4344.2136 3337.4153,4070.9279 4156.7518,3112.9163 2660.7967,4127.7466 1699.424,3357.64 722.96129,2119.2633 1842.5294,2391.4149 2742.815,2268.0265 2844.1054,703.41832 c 354.17,859.36738 760.3994,1280.12008 1319.2145,415.29478 -173.5836,2065.6277 -756.1836,2993.2815 -1635.5024,3095.3986"/>
</svg>
